PathFileType	4	(X/Y/Z)	RBDS011\RBDS011runT35.trc
DataRate	CameraRate	NumFrames	NumMarkers	Units	OrigDataRate	OrigDataStartFrame	OrigNumFrames
150.000000	150.000000	4	33	mm	150.000000	0	4500
Frame#	Time	L.ASIS			L.Heel.Bottom			L.Heel.Lateral			L.Heel.Top			L.Iliac.Crest			L.MT1			L.MT5			L.PSIS			L.Shank.Bottom.Lateral			L.Shank.Bottom.Medial			L.Shank.Top.Lateral			L.Shank.Top.Medial			L.Thigh.Bottom.Lateral			L.Thigh.Bottom.Medial			L.Thigh.Top.Lateral			L.Thigh.Top.Medial			R.ASIS			R.ASY			R.Heel.Bottom			R.Heel.Lateral			R.Heel.Top			R.Iliac.Crest			R.MT1			R.MT5			R.PSIS			R.Shank.Bottom.Lateral			R.Shank.Bottom.Medial			R.Shank.Top.Lateral			R.Shank.Top.Medial			R.Thigh.Bottom.Lateral			R.Thigh.Bottom.Medial			R.Thigh.Top.Lateral			R.Thigh.Top.Medial			
		X1	Y1	Z1	X2	Y2	Z2	X3	Y3	Z3	X4	Y4	Z4	X5	Y5	Z5	X6	Y6	Z6	X7	Y7	Z7	X8	Y8	Z8	X9	Y9	Z9	X10	Y10	Z10	X11	Y11	Z11	X12	Y12	Z12	X13	Y13	Z13	X14	Y14	Z14	X15	Y15	Z15	X16	Y16	Z16	X17	Y17	Z17	X18	Y18	Z18	X19	Y19	Z19	X20	Y20	Z20	X21	Y21	Z21	X22	Y22	Z22	X23	Y23	Z23	X24	Y24	Z24	X25	Y25	Z25	X26	Y26	Z26	X27	Y27	Z27	X28	Y28	Z28	X29	Y29	Z29	X30	Y30	Z30	X31	Y31	Z31	X32	Y32	Z32	X33	Y33	Z33	

1	0	2263.8470107108	996.786295768424	914.1611453467375	1642.274593681304	228.2224062051934	997.180627373136	1667.362036972134	213.4731887537127	958.5590813397135	1685.361879745271	251.1330498220321	994.7598956935027	2236.498883497284	1082.416149912313	886.6642489481469	1790.724187795525	66.73672915990061	1049.288058760306	1764.211929973945	73.41463061994605	934.8821753103945	2110.59256071592	1054.97445734261	996.2955954052411	1778.537231126459	284.4715443577661	937.9303829843128	1752.87379397831	307.5404202081506	981.1779066286282	1817.957900001568	353.2596062344974	925.4771424632529	1793.800596639515	376.124276907062	968.01353164993	2039.541759464307	650.0817858093652	893.6068830851054	1990.402785428255	669.1615919488743	944.419945668238	2064.532909409389	757.207280917717	883.0001151155582	2021.825970016279	774.5878461819211	933.7881282400066	2283.277923796503	1017.444467711805	1152.987644864682	2457.041497583759	144.9278765857856	1110.952280809432	2275.780616903252	91.17235790833422	1078.31251929562	2295.527574161837	107.7667628834549	1123.162498623295	2287.916006513974	140.3913263013061	1081.905409068728	2234.924738495518	1085.512511738931	1198.623680680528	2503.592090243408	91.97046188983285	1065.536193396647	2462.688211553188	82.36234040869823	1174.808111283415	2113.55079560078	1060.416892841262	1097.930701599925	2338.683256265343	225.3636816995629	1143.348742311775	2312.36819521496	238.7186292550666	1102.119310025228	2345.50075825995	307.8265647415135	1163.352730514621	2315.859551514684	317.5383270414993	1119.923334700811	2371.222645194293	671.768515910074	1205.073205500533	2316.316832369604	637.987941613211	1169.845736288802	2307.558866279453	759.2494403740116	1219.817406699933	2254.060982641712	728.4661139073435	1188.885307014116	
2	0.006666666666666667	2264.448810511285	998.9920446039338	914.2872398799109	1635.856981920841	244.4682138420483	997.6862546301052	1659.109946671768	228.1323681889414	958.7826738686221	1680.171295031801	264.009490288685	994.6142466987625	2237.253517323866	1086.242151529968	887.5879703341969	1772.942143780597	73.58733813228054	1048.136904235281	1745.151841227265	81.95683724209961	934.8713723314389	2111.479520641181	1058.59047941945	996.3425971246243	1770.8019752804	292.7228882829841	937.4391738504636	1745.860239860633	315.6859365768374	981.3538036608336	1811.68115964863	360.8573334925299	925.6845949337159	1788.151916701902	383.6775992656959	968.6001412557259	2038.907897104456	653.0412866386561	894.7740892149588	1989.448856079806	673.0486598733239	944.9341000901691	2064.693400243336	759.9366773395845	883.3527888146818	2021.818267551403	778.0872821015439	933.703505552278	2283.655564330259	1019.178608023248	1152.76327426433	2479.260265982912	149.9933169006149	1108.161163972684	2303.243979817642	84.13331564858498	1079.335864930348	2322.904952073966	101.6717418590634	1123.893031577287	2311.798768376495	133.5939679681384	1083.422696149834	2236.246641728639	1088.604575327146	1198.032760894355	2527.508409486839	101.6450767272123	1060.640595700275	2491.282590865966	88.13372027977965	1170.704215584175	2114.426038908037	1064.155760833338	1097.999816145176	2357.143906891647	221.8753475412902	1143.907544253156	2329.413776294769	233.5618576845298	1102.998969792147	2358.886445204105	303.9191178138593	1164.363908745087	2328.009161723616	311.7322259308387	1121.607985892359	2366.897488582436	670.3574610921183	1206.44901592138	2312.074571581764	637.744879770921	1170.186404395022	2304.110209611286	758.6029337028325	1221.015187519065	2250.70241936372	728.7423596048355	1189.093650953645	
3	0.01333333333333333	2265.068006185677	1001.071754154053	914.4357884741622	1629.512485303181	260.7419906608012	998.2654046023699	1650.970510154543	242.873907397449	959.0936487702927	1674.997951498438	276.9913280358287	994.5606042520616	2237.959806676798	1089.864690846325	888.5101262766004	1755.436855624834	80.80564729857136	1047.113672718495	1726.440976045616	90.84342407509887	934.9350465643272	2112.319847436639	1062.007726474532	996.3837748294853	1763.242893565185	301.102324532261	937.027126889026	1739.064434317835	324.0283552285305	981.5698004524786	1805.670506198901	368.4708541238702	925.9177229599848	1782.806797426315	391.3134365953508	969.1892941254642	2038.647167052264	655.6618801436317	895.8742190808788	1988.811350560412	676.5384642692218	945.3271514385693	2065.121113374429	762.3497181291801	883.6309591836629	2021.996048157	781.2295724155571	933.4801702518131	2283.994330987968	1020.758446144278	1152.575671459335	2500.701436692495	155.023339213243	1105.466809165584	2329.89152018797	77.40218249776801	1080.392504957152	2349.462370537995	95.8764987721041	1124.655016650184	2334.958833196093	127.0712643209281	1084.951152237309	2237.486687805816	1091.464975711594	1197.488652281382	2550.56075247185	111.1688127271205	1055.914586858543	2518.927144216874	93.93218291353942	1166.742226982504	2115.233308051354	1067.665692972472	1098.079770987546	2375.008024303488	218.5658068840182	1144.469991552212	2345.919638880989	228.610019316054	1103.87995254928	2371.823022515807	300.1713170727876	1165.353068383222	2339.772716509393	306.1231618353997	1123.245010531671	2362.599283501022	668.8999852237827	1207.822483055562	2307.872279842917	637.4608789180967	1170.513348058868	2300.684125245649	757.8912902165922	1222.2454688543	2247.382998501706	728.9704510433137	1189.31285983046	
4	0.02	2265.723394719327	1002.924679339878	914.6256273781439	1623.307242153419	277.0994070890592	998.9679872457888	1643.044909062037	257.7944060716419	959.5601950461427	1669.857501453693	290.1971692796373	994.6723401000273	2238.557626132857	1093.111481701668	889.4207898252496	1738.434786470347	88.75174239626539	1046.345927217393	1708.373722893849	100.4028948438889	935.1490077868829	2113.079140041859	1065.046946171406	996.4101858967556	1756.016362629228	309.7412159891534	936.765930195291	1732.675806698501	332.7622359109223	981.8596766936129	1800.161257375362	376.1280755233241	926.2031144946593	1778.033330464137	399.1226038079346	969.7812885280508	2039.095142373955	657.6469156640484	896.8469915024785	1988.779586261813	679.279456669911	945.4983228878989	2066.057982820074	764.1712623151481	883.770613887889	2022.530687606459	783.6995254186719	933.0026851068299	2284.258564992389	1022.06618388854	1152.467188733202	2520.664194156155	159.9372842425034	1102.987122518275	2354.967917139763	71.21397109769842	1081.51745401089	2374.439569720488	90.6035246141909	1125.485732009852	2356.728306190028	121.0330252530694	1086.510258048793	2238.555953910682	1093.895656102712	1197.033846180283	2571.975946093377	120.3493421977285	1051.538945755481	2544.754532044294	99.70647445596875	1163.070332518123	2115.916788571283	1070.742098564692	1098.170100175763	2391.717340691628	215.5602139483	1145.056252925272	2361.380653658201	224.0094015534142	1104.773834715468	2383.88033602052	296.6985847749469	1166.309838726337	2350.776610243905	300.8565869073422	1124.797478605069	2358.349173207057	667.354840224639	1209.169502040565	2303.73667701508	637.0974399559489	1170.801679938603	2297.30463355964	757.0611560026023	1223.511374965935	2244.135412123955	729.1092113852847	1189.540969742808	
